<?xml version="1.0" encoding="UTF-8" standalone="no"?>
<!-- Created with Inkscape (http://www.inkscape.org/) -->

<svg
   xmlns:dc="http://purl.org/dc/elements/1.1/"
   xmlns:cc="http://creativecommons.org/ns#"
   xmlns:rdf="http://www.w3.org/1999/02/22-rdf-syntax-ns#"
   xmlns:svg="http://www.w3.org/2000/svg"
   xmlns="http://www.w3.org/2000/svg"
   xmlns:sodipodi="http://sodipodi.sourceforge.net/DTD/sodipodi-0.dtd"
   xmlns:inkscape="http://www.inkscape.org/namespaces/inkscape"
   id="svg2"
   version="1.1"
   inkscape:version="0.91 r13725"
   xml:space="preserve"
   width="45.00721"
   height="19.268303"
   viewBox="0 0 45.00721 19.268303"
   sodipodi:docname="oss4dm.svg"><metadata
     id="metadata8"><rdf:RDF><cc:Work
         rdf:about=""><dc:format>image/svg+xml</dc:format><dc:type
           rdf:resource="http://purl.org/dc/dcmitype/StillImage" /><dc:title></dc:title></cc:Work></rdf:RDF></metadata><defs
     id="defs6" /><sodipodi:namedview
     pagecolor="#ffffff"
     bordercolor="#666666"
     borderopacity="1"
     objecttolerance="10"
     gridtolerance="10"
     guidetolerance="10"
     inkscape:pageopacity="0"
     inkscape:pageshadow="2"
     inkscape:window-width="1855"
     inkscape:window-height="1056"
     id="namedview4"
     showgrid="false"
     fit-margin-top="0"
     fit-margin-right="0"
     fit-margin-left="0"
     fit-margin-bottom="0"
     inkscape:zoom="3.7380246"
     inkscape:cx="38.986822"
     inkscape:cy="23.48557"
     inkscape:window-x="65"
     inkscape:window-y="624"
     inkscape:window-maximized="1"
     inkscape:current-layer="g10" /><g
     id="g10"
     inkscape:groupmode="layer"
     inkscape:label="logo"
     transform="matrix(1.25,0,0,-1.25,-0.85782179,19.950567)"><g
       id="g12"
       transform="translate(18.832976,12.593261)"><g
         id="g14"><g
           id="g16"><g
             id="g18"><g
               id="g20"
               transform="translate(-18.605,-3.248)"><g
                 id="g22"><g
                   id="g24"
                   transform="translate(-13.283,-18.762)"><text
                     transform="matrix(1,0,0,-1,13.283,18.762)"
                     style="font-variant:normal;font-weight:bold;font-size:9.96263981px;font-family:'Source Sans Pro';-inkscape-font-specification:SourceSansPro-Bold;writing-mode:lr-tb;fill:#000000;fill-opacity:1;fill-rule:nonzero;stroke:none"
                     id="text26"><tspan
                       x="0 6.814446 12.174346"
                       y="0"
                       sodipodi:role="line"
                       id="tspan28">OSS</tspan></text>
<text
                     transform="matrix(1,0,0,-1,30.997,18.762)"
                     style="font-variant:normal;font-weight:bold;font-size:9.96263981px;font-family:'Source Sans Pro';-inkscape-font-specification:SourceSansPro-Bold;writing-mode:lr-tb;fill:#8c1515;fill-opacity:1;fill-rule:nonzero;stroke:none"
                     id="text30"><tspan
                       x="0"
                       y="0"
                       id="tspan32">4</tspan></text>
<text
                     transform="matrix(1,0,0,-1,36.576,18.762)"
                     style="font-variant:normal;font-weight:bold;font-size:9.96263981px;font-family:'Source Sans Pro';-inkscape-font-specification:SourceSansPro-Bold;writing-mode:lr-tb;fill:#000000;fill-opacity:1;fill-rule:nonzero;stroke:none"
                     id="text34"><tspan
                       x="0 6.3262763"
                       y="0"
                       sodipodi:role="line"
                       id="tspan36">DM</tspan></text>
<g
                     id="g38"
                     transform="translate(13.283,18.762)" /></g></g><g
                 id="g40"
                 transform="translate(18.605,3.248)" /></g></g><g
             id="g42" /><g
             id="g44"><path
               d="m -9.35449,-8.50412 c 0,0.39128 -0.31721,0.7085 -0.7085,0.7085 -0.39128,0 -0.70848,-0.31722 -0.70848,-0.7085 0,-0.39128 0.3172,-0.70848 0.70848,-0.70848 0.39129,0 0.7085,0.3172 0.7085,0.70848 z"
               style="fill:#000000;fill-opacity:1;fill-rule:nonzero;stroke:none"
               id="path46"
               inkscape:connector-curvature="0" /></g><g
             id="g48"><path
               d="m -9.35449,-11.33896 c 0,0.39128 -0.31721,0.70848 -0.7085,0.70848 -0.39128,0 -0.70848,-0.3172 -0.70848,-0.70848 0,-0.3913 0.3172,-0.70849 0.70848,-0.70849 0.39129,0 0.7085,0.31719 0.7085,0.70849 z"
               style="fill:#000000;fill-opacity:1;fill-rule:nonzero;stroke:none"
               id="path50"
               inkscape:connector-curvature="0" /></g><g
             id="g52"><path
               d="m -2.55112,-5.66927 c 0,0.39129 -0.3172,0.70849 -0.70848,0.70849 -0.39128,0 -0.7085,-0.3172 -0.7085,-0.70849 0,-0.39128 0.31722,-0.70849 0.7085,-0.70849 0.39128,0 0.70848,0.31721 0.70848,0.70849 z"
               style="fill:#000000;fill-opacity:1;fill-rule:nonzero;stroke:none"
               id="path54"
               inkscape:connector-curvature="0" /></g><g
             id="g56"><path
               d="m -2.55112,-11.33896 c 0,0.39128 -0.3172,0.70848 -0.70848,0.70848 -0.39128,0 -0.7085,-0.3172 -0.7085,-0.70848 0,-0.3913 0.31722,-0.70849 0.7085,-0.70849 0.39128,0 0.70848,0.31719 0.70848,0.70849 z"
               style="fill:#000000;fill-opacity:1;fill-rule:nonzero;stroke:none"
               id="path58"
               inkscape:connector-curvature="0" /></g><g
             id="g60"><path
               d="m 4.25226,-5.66927 c 0,0.39129 -0.3172,0.70849 -0.70848,0.70849 -0.3913,0 -0.7085,-0.3172 -0.7085,-0.70849 0,-0.39128 0.3172,-0.70849 0.7085,-0.70849 0.39128,0 0.70848,0.31721 0.70848,0.70849 z"
               style="fill:#000000;fill-opacity:1;fill-rule:nonzero;stroke:none"
               id="path62"
               inkscape:connector-curvature="0" /></g><g
             id="g64"><path
               d="m 11.05565,-11.33896 c 0,0.39128 -0.3172,0.70848 -0.7085,0.70848 -0.39128,0 -0.70848,-0.3172 -0.70848,-0.70848 0,-0.3913 0.3172,-0.70849 0.70848,-0.70849 0.3913,0 0.7085,0.31719 0.7085,0.70849 z"
               style="fill:#000000;fill-opacity:1;fill-rule:nonzero;stroke:none"
               id="path66"
               inkscape:connector-curvature="0" /></g><g
             id="g68"><path
               d="m 17.85905,-5.66927 c 0,0.39129 -0.31721,0.70849 -0.70849,0.70849 -0.39128,0 -0.70848,-0.3172 -0.70848,-0.70849 0,-0.39128 0.3172,-0.70849 0.70848,-0.70849 0.39128,0 0.70849,0.31721 0.70849,0.70849 z"
               style="fill:#000000;fill-opacity:1;fill-rule:nonzero;stroke:none"
               id="path70"
               inkscape:connector-curvature="0" /></g><g
             id="g72"><path
               d="m -16.86638,-8.50412 c 2.65303,0 4.15038,0 6.80339,0"
               style="fill:none;stroke:#000000;stroke-width:0.3985;stroke-linecap:butt;stroke-linejoin:miter;stroke-miterlimit:10;stroke-dasharray:none;stroke-opacity:1"
               id="path74"
               inkscape:connector-curvature="0" /></g><g
             id="g76"><path
               d="m -16.86638,-8.50412 c 2.877,0 3.92641,-2.83484 6.80339,-2.83484"
               style="fill:none;stroke:#000000;stroke-width:0.3985;stroke-linecap:butt;stroke-linejoin:miter;stroke-miterlimit:10;stroke-dasharray:none;stroke-opacity:1"
               id="path78"
               inkscape:connector-curvature="0" /></g><g
             id="g80"><path
               d="m -10.06299,-5.66927 c 2.65302,0 4.15038,0 6.80339,0"
               style="fill:none;stroke:#000000;stroke-width:0.3985;stroke-linecap:butt;stroke-linejoin:miter;stroke-miterlimit:10;stroke-dasharray:none;stroke-opacity:1"
               id="path82"
               inkscape:connector-curvature="0" /></g><g
             id="g84"><path
               d="m -10.06299,-11.33896 c 2.65302,0 4.15038,0 6.80339,0"
               style="fill:none;stroke:#000000;stroke-width:0.3985;stroke-linecap:butt;stroke-linejoin:miter;stroke-miterlimit:10;stroke-dasharray:none;stroke-opacity:1"
               id="path86"
               inkscape:connector-curvature="0" /></g><g
             id="g88"><path
               d="m -3.2596,-8.50412 c 2.87699,0 3.92638,2.83485 6.80338,2.83485"
               style="fill:none;stroke:#000000;stroke-width:0.3985;stroke-linecap:butt;stroke-linejoin:miter;stroke-miterlimit:10;stroke-dasharray:none;stroke-opacity:1"
               id="path90"
               inkscape:connector-curvature="0" /></g><g
             id="g92"><path
               d="m 3.54378,-11.33896 c 2.65302,0 4.15036,0 6.80337,0"
               style="fill:none;stroke:#000000;stroke-width:0.3985;stroke-linecap:butt;stroke-linejoin:miter;stroke-miterlimit:10;stroke-dasharray:none;stroke-opacity:1"
               id="path94"
               inkscape:connector-curvature="0" /></g><g
             id="g96"><path
               d="m 10.34715,-8.50412 c 2.877,0 3.92642,2.83485 6.80341,2.83485"
               style="fill:none;stroke:#000000;stroke-width:0.3985;stroke-linecap:butt;stroke-linejoin:miter;stroke-miterlimit:10;stroke-dasharray:none;stroke-opacity:1"
               id="path98"
               inkscape:connector-curvature="0" /></g><g
             id="g100"><path
               d="m -16.15788,-8.50412 c 0,0.39128 -0.31722,0.7085 -0.7085,0.7085 -0.39128,0 -0.70848,-0.31722 -0.70848,-0.7085 0,-0.39128 0.3172,-0.70848 0.70848,-0.70848 0.39128,0 0.7085,0.3172 0.7085,0.70848 z"
               style="fill:#8c1515;fill-opacity:1;fill-rule:nonzero;stroke:none"
               id="path102"
               inkscape:connector-curvature="0" /></g><g
             id="g104"><path
               d="m -9.35449,-5.66927 c 0,0.39129 -0.31721,0.70849 -0.7085,0.70849 -0.39128,0 -0.70848,-0.3172 -0.70848,-0.70849 0,-0.39128 0.3172,-0.70849 0.70848,-0.70849 0.39129,0 0.7085,0.31721 0.7085,0.70849 z"
               style="fill:#8c1515;fill-opacity:1;fill-rule:nonzero;stroke:none"
               id="path106"
               inkscape:connector-curvature="0" /></g><g
             id="g108"><path
               d="m -2.55112,-8.50412 c 0,0.39128 -0.3172,0.7085 -0.70848,0.7085 -0.39128,0 -0.7085,-0.31722 -0.7085,-0.7085 0,-0.39128 0.31722,-0.70848 0.7085,-0.70848 0.39128,0 0.70848,0.3172 0.70848,0.70848 z"
               style="fill:#8c1515;fill-opacity:1;fill-rule:nonzero;stroke:none"
               id="path110"
               inkscape:connector-curvature="0" /></g><g
             id="g112"><path
               d="m 4.25226,-11.33896 c 0,0.39128 -0.3172,0.70848 -0.70848,0.70848 -0.3913,0 -0.7085,-0.3172 -0.7085,-0.70848 0,-0.3913 0.3172,-0.70849 0.7085,-0.70849 0.39128,0 0.70848,0.31719 0.70848,0.70849 z"
               style="fill:#8c1515;fill-opacity:1;fill-rule:nonzero;stroke:none"
               id="path114"
               inkscape:connector-curvature="0" /></g><g
             id="g116"><path
               d="m 11.05565,-8.50412 c 0,0.39128 -0.3172,0.7085 -0.7085,0.7085 -0.39128,0 -0.70848,-0.31722 -0.70848,-0.7085 0,-0.39128 0.3172,-0.70848 0.70848,-0.70848 0.3913,0 0.7085,0.3172 0.7085,0.70848 z"
               style="fill:#8c1515;fill-opacity:1;fill-rule:nonzero;stroke:none"
               id="path118"
               inkscape:connector-curvature="0" /></g><g
             id="g120"><path
               d="m 17.85905,-11.33896 c 0,0.39128 -0.31721,0.70848 -0.70849,0.70848 -0.39128,0 -0.70848,-0.3172 -0.70848,-0.70848 0,-0.3913 0.3172,-0.70849 0.70848,-0.70849 0.39128,0 0.70849,0.31719 0.70849,0.70849 z"
               style="fill:#8c1515;fill-opacity:1;fill-rule:nonzero;stroke:none"
               id="path122"
               inkscape:connector-curvature="0" /></g><g
             id="g124"><path
               d="m -16.86638,-8.50412 c 2.877,0 3.92641,2.83485 6.80339,2.83485"
               style="fill:none;stroke:#8c1515;stroke-width:0.3985;stroke-linecap:butt;stroke-linejoin:miter;stroke-miterlimit:10;stroke-dasharray:none;stroke-opacity:1"
               id="path126"
               inkscape:connector-curvature="0" /></g><g
             id="g128"><path
               d="m -10.06299,-5.66927 c 2.87699,0 3.92639,-2.83485 6.80339,-2.83485"
               style="fill:none;stroke:#8c1515;stroke-width:0.3985;stroke-linecap:butt;stroke-linejoin:miter;stroke-miterlimit:10;stroke-dasharray:none;stroke-opacity:1"
               id="path130"
               inkscape:connector-curvature="0" /></g><g
             id="g132"><path
               d="m -3.2596,-8.50412 c 2.87699,0 3.92638,-2.83484 6.80338,-2.83484"
               style="fill:none;stroke:#8c1515;stroke-width:0.3985;stroke-linecap:butt;stroke-linejoin:miter;stroke-miterlimit:10;stroke-dasharray:none;stroke-opacity:1"
               id="path134"
               inkscape:connector-curvature="0" /></g><g
             id="g136"><path
               d="m 3.54378,-11.33896 c 2.87698,0 3.92639,2.83484 6.80337,2.83484"
               style="fill:none;stroke:#8c1515;stroke-width:0.3985;stroke-linecap:butt;stroke-linejoin:miter;stroke-miterlimit:10;stroke-dasharray:none;stroke-opacity:1"
               id="path138"
               inkscape:connector-curvature="0" /></g><g
             id="g140"><path
               d="m 10.34715,-8.50412 c 2.877,0 3.92642,-2.83484 6.80341,-2.83484"
               style="fill:none;stroke:#8c1515;stroke-width:0.3985;stroke-linecap:butt;stroke-linejoin:miter;stroke-miterlimit:10;stroke-dasharray:none;stroke-opacity:1"
               id="path142"
               inkscape:connector-curvature="0" /></g></g></g></g></g></svg>